<svg width="181" height="151" viewBox="0 0 181 151" fill="none" xmlns="http://www.w3.org/2000/svg">
<path d="M94.5522 2.29547L118.854 45.2318C119.447 46.2792 120.633 47.3266 122.411 47.3266L176.352 54.135C180.502 54.6587 181.688 58.8485 178.723 61.467L139.604 94.9767C138.419 96.0242 137.826 97.0716 138.419 98.6427L147.311 145.77C147.904 148.912 143.754 151.53 140.197 149.959L92.185 127.443C90.9993 126.92 89.2207 126.92 88.035 127.443L40.0228 150.479C36.4657 152.05 32.3156 149.431 32.9085 146.289L41.8013 99.1624C41.8013 97.5913 41.8013 96.5438 40.6156 95.4964L1.49657 61.9867C-1.46765 59.3681 0.310879 55.1783 3.86795 54.6546L57.8087 47.8463C59.5872 47.8463 60.7729 46.7988 61.3657 45.7514L85.6678 2.81513C87.4417 -0.846801 92.7737 -0.846801 94.5522 2.29547Z" fill="#D3AF37"/>
</svg>
